<svg width="19" height="23" viewBox="0 0 19 23" fill="none" xmlns="http://www.w3.org/2000/svg">
<path d="M16.9694 17.8827C16.5025 17.3471 16.0481 16.796 15.6067 16.2302C15.2359 15.7789 15.0126 15.4505 15.0126 15.4505L12.2214 13.8541C13.3389 12.3361 13.9556 10.3819 13.9559 8.35809C13.9559 3.75039 10.8258 0 6.97796 0C3.13011 0 0 3.75039 0 8.35809C0 12.9658 3.13011 16.7162 6.97796 16.7162C8.73541 16.7162 10.3373 15.9281 11.5665 14.6398L12.8993 17.983C12.8993 17.983 13.1734 18.2505 13.5502 18.6947C13.936 19.1281 14.4434 19.7143 14.9298 20.3269L16.2836 21.9889L16.8857 22.7603L19 20.2278L18.356 19.5066C17.9782 19.0624 17.4738 18.4726 16.9694 17.8827ZM6.97796 14.3282C4.22964 14.3282 1.9937 11.65 1.9937 8.35809C1.9937 5.0662 4.22964 2.38803 6.97796 2.38803C9.72628 2.38803 11.9622 5.0662 11.9622 8.35809C11.9622 11.65 9.72628 14.3282 6.97796 14.3282Z" fill="white"/>
</svg>
