<svg width="14" height="13" viewBox="0 0 14 13" fill="none" xmlns="http://www.w3.org/2000/svg">
<path d="M7.7 5.85V3.25H6.3V5.85H3.5V7.15H6.3V9.75H7.7V7.15H10.5V5.85H7.7ZM7 13C5.14348 13 3.36301 12.3152 2.05025 11.0962C0.737498 9.87721 0 8.22391 0 6.5C0 4.77609 0.737498 3.12279 2.05025 1.90381C3.36301 0.684819 5.14348 0 7 0C8.85651 0 10.637 0.684819 11.9497 1.90381C13.2625 3.12279 14 4.77609 14 6.5C14 8.22391 13.2625 9.87721 11.9497 11.0962C10.637 12.3152 8.85651 13 7 13Z" fill="white"/>
</svg>
