<svg width="19" height="23" viewBox="0 0 19 23" fill="none" xmlns="http://www.w3.org/2000/svg">
<path d="M2.85 0C1.28725 0 0 1.19865 0 2.65385V23H19V2.65385C19 1.19865 17.7127 0 16.15 0H2.85ZM2.85 1.76923H16.15C16.6772 1.76923 17.1 2.16288 17.1 2.65385V21.2308H15.2V16.8077H10.45V21.2308H1.9V2.65385C1.9 2.16288 2.32275 1.76923 2.85 1.76923ZM3.8 3.53846V6.19231H8.55V3.53846H3.8ZM10.45 3.53846V6.19231H15.2V3.53846H10.45ZM3.8 7.96154V10.6154H8.55V7.96154H3.8ZM10.45 7.96154V10.6154H15.2V7.96154H10.45ZM3.8 12.3846V15.0385H8.55V12.3846H3.8ZM10.45 12.3846V15.0385H15.2V12.3846H10.45ZM3.8 16.8077V19.4615H8.55V16.8077H3.8Z" fill="white"/>
</svg>
